<?xml version="1.0" encoding="utf-8"?>
<!-- Generator: Adobe Illustrator 21.1.0, SVG Export Plug-In . SVG Version: 6.00 Build 0)  -->
<svg version="1.1" id="Layer_1" xmlns="http://www.w3.org/2000/svg" xmlns:xlink="http://www.w3.org/1999/xlink" x="0px" y="0px"
	 viewBox="0 -1 124.7 29.4" style="enable-background:new 0 -1 124.7 29.4;" xml:space="preserve">
<style type="text/css">
	.st0{fill-rule:evenodd;clip-rule:evenodd;fill:#010101;}
</style>
<path class="st0" d="M93.3,27.3l-2.3-2.6l2.1-2.4h-0.8l-2.2,2.6v-2.6h-0.6v5h0.6v-1.7l0.5-0.6l1.9,2.2H93.3L93.3,27.3z M117.1,13.3
	h-3.2V1.7h3.2c3.7,0,5.7,2.6,5.7,5.8C122.8,10.7,120.7,13.3,117.1,13.3L117.1,13.3z M66.4,14.9V1.7h4.7V0H59.8v1.7h4.7v13.3H66.4
	L66.4,14.9z M5.7,15.2c4,0,5.5-2.2,5.5-4.4c0-5.6-8.8-3.6-8.8-7c0-1.4,1.3-2.4,3.1-2.4c1.6,0,3.2,0.6,4.3,1.8l1.1-1.4
	c-1.3-1.3-3-2.1-5.3-2.1c-2.9,0-5.1,1.7-5.1,4.1c0,5.3,8.8,3.2,8.8,7c0,1.1-0.8,2.6-3.5,2.6c-2.1,0-3.7-1-4.7-2.1L0,12.8
	C1.2,14.2,3.1,15.2,5.7,15.2L5.7,15.2z M21.5,15.2c2.6,0,4.4-1.3,5.7-3l-1.6-0.9c-0.8,1.3-2.4,2.2-4.1,2.2c-3.3,0-5.7-2.5-5.7-6.1
	c0-3.6,2.5-6.1,5.7-6.1c1.7,0,3.2,0.9,4.1,2.2l1.6-0.9c-1.2-1.7-3-3-5.7-3c-4.3,0-7.7,3.1-7.7,7.7C13.9,12.1,17.2,15.2,21.5,15.2
	L21.5,15.2z M40.2,14.9v-1.7h-7.9V8.1h7.8V6.5h-7.8V1.7h7.9V0h-9.8v14.9H40.2L40.2,14.9z M56.7,14.9V0h-1.9v11.6L46.3,0h-1.9v14.9
	h1.9V3l8.7,11.9H56.7L56.7,14.9z M80.6,13.3H76V8.1h4.6c1.8,0,2.8,1.2,2.8,2.6C83.4,12.3,82.3,13.3,80.6,13.3L80.6,13.3z M80.5,6.5
	H76V1.7h4.5c1.7,0,2.6,1.1,2.6,2.4C83.1,5.4,82.2,6.5,80.5,6.5L80.5,6.5z M81,14.9c2.7,0,4.3-1.6,4.3-4c0-1.8-1.3-3.4-2.9-3.7
	C83.7,6.9,85,5.7,85,3.8C85,1.6,83.4,0,80.8,0h-6.6v14.9H81L81,14.9z M91.7,14.9V0h-1.9v14.9H91.7L91.7,14.9z M103,7.4h-3.9V1.7h3.9
	c1.8,0,3,1.2,3,2.8C106,6.2,104.7,7.4,103,7.4L103,7.4z M108,14.9l-4-6.1c2-0.2,3.9-1.7,3.9-4.3c0-2.8-1.9-4.5-4.7-4.5h-6v14.9h1.9
	V9h3l3.8,5.9H108L108,14.9z M117.1,14.9c4.6,0,7.6-3.2,7.6-7.4c0-4.2-3-7.5-7.6-7.5H112v14.9H117.1L117.1,14.9z M102.3,23.6
	c0.7,0,1.2,0.5,1.2,1.2c0,0.7-0.5,1.2-1.2,1.2c-0.7,0-1.2-0.5-1.2-1.2C101.1,24.2,101.6,23.6,102.3,23.6L102.3,23.6z M21.3,23.6
	c0.7,0,1.2,0.5,1.2,1.2c0,0.7-0.5,1.2-1.2,1.2c-0.7,0-1.2-0.5-1.2-1.2C20.1,24.2,20.7,23.6,21.3,23.6L21.3,23.6z M35.5,27.3v-5h-0.6
	v3.9l-2.9-3.9h-0.6v5H32v-4l2.9,4H35.5L35.5,27.3z M44.2,27.3v-0.6h-2.6V25h2.6v-0.6h-2.6v-1.6h2.6v-0.6h-3.3v5H44.2L44.2,27.3z
	 M53.9,27.3l1.4-5h-0.7l-1.1,4.1l-1.1-4.1h-0.5l-1.1,4.1l-1.1-4.1h-0.7l1.4,5H51l1.1-4l1.1,4H53.9L53.9,27.3z M64.4,27.3v-2.1l2-2.9
	h-0.7L64,24.6l-1.5-2.3h-0.7l2,2.9v2.1H64.4L64.4,27.3z M73.2,26.9c-1.1,0-1.8-0.9-1.8-2c0-1.2,0.7-2,1.8-2c1.1,0,1.8,0.9,1.8,2
	C75,26,74.3,26.9,73.2,26.9L73.2,26.9z M73.2,27.4c1.5,0,2.5-1.1,2.5-2.6c0-1.5-1-2.6-2.5-2.6c-1.5,0-2.5,1.1-2.5,2.6
	C70.7,26.3,71.7,27.4,73.2,27.4L73.2,27.4z M82.8,24.8h-1.3v-1.9h1.3c0.6,0,1,0.4,1,0.9C83.7,24.4,83.3,24.8,82.8,24.8L82.8,24.8z
	 M84.4,27.3l-1.3-2c0.7-0.1,1.3-0.6,1.3-1.4c0-0.9-0.6-1.5-1.6-1.5h-2v5h0.6v-2h1l1.3,2H84.4z"/>
</svg>
